<?xml version="1.0" standalone="no"?>
<!DOCTYPE svg PUBLIC "-//W3C//DTD SVG 20010904//EN"
 "http://www.w3.org/TR/2001/REC-SVG-20010904/DTD/svg10.dtd">
<svg version="1.0" xmlns="http://www.w3.org/2000/svg"
 width="512.000000pt" height="512.000000pt" viewBox="0 0 512.000000 512.000000"
 preserveAspectRatio="xMidYMid meet">
<metadata>
Created by potrace 1.11, written by Peter Selinger 2001-2013
</metadata>
<g transform="translate(0.000000,512.000000) scale(0.100000,-0.100000)"
fill="#000000" stroke="none">
<path d="M0 2560 l0 -2560 2560 0 2560 0 0 2560 0 2560 -2560 0 -2560 0 0
-2560z m1432 2173 c10 -9 18 -22 18 -29 0 -14 79 -72 135 -99 52 -24 145 -46
220 -52 33 -3 64 -9 69 -14 6 -5 36 -9 67 -9 32 0 61 -4 64 -10 3 -5 17 -10
30 -10 13 0 27 5 30 10 3 6 17 10 31 10 13 0 33 5 44 10 11 6 29 15 40 20 11
6 25 10 31 10 5 0 25 11 42 24 42 30 95 56 118 56 10 0 20 3 22 8 6 8 55 7 79
-3 16 -6 159 -2 226 7 18 2 35 1 38 -4 3 -4 13 -8 23 -8 48 0 171 -79 171
-109 0 -7 -7 -14 -15 -17 -23 -9 -19 -44 5 -44 11 0 27 -12 37 -27 26 -44 45
-63 54 -57 5 2 -1 19 -11 37 -27 44 -27 70 1 62 19 -6 21 -4 16 15 -5 20 -3
22 26 15 37 -7 54 -7 122 1 47 5 52 4 64 -19 12 -23 49 -42 59 -32 3 2 -2 15
-11 29 -15 22 -15 25 1 31 26 11 102 14 108 4 9 -14 24 -10 24 6 0 17 38 35
73 35 12 0 33 9 47 20 33 26 52 25 79 -4 22 -23 22 -25 6 -50 -17 -26 -89 -83
-154 -123 l-36 -21 -22 26 c-18 22 -24 25 -35 14 -11 -11 -10 -16 5 -26 9 -7
17 -17 17 -22 0 -18 -66 -37 -121 -36 -56 2 -59 0 -103 -44 -46 -46 -62 -97
-33 -107 7 -2 8 -8 3 -13 -5 -5 -11 -4 -13 4 -7 19 -33 14 -33 -6 0 -17 32
-52 48 -52 5 0 18 -11 31 -23 20 -22 20 -25 6 -37 -20 -17 -55 -88 -55 -112 0
-10 4 -26 9 -36 5 -9 15 -30 22 -47 7 -16 24 -42 37 -57 l25 -27 -37 -50 c-20
-28 -36 -56 -36 -61 0 -18 -15 -11 -25 12 -6 12 -21 25 -34 28 -14 3 -27 12
-29 19 -3 9 2 11 14 8 11 -3 33 -8 49 -12 l30 -7 -27 29 c-27 28 -36 53 -20
53 4 0 13 -5 20 -12 17 -17 28 -2 12 17 -10 12 -10 18 0 30 14 17 1 35 -65 96
-24 22 -27 29 -17 41 15 18 4 32 -14 17 -27 -22 -48 23 -22 49 8 8 8 15 -2 27
-12 14 -10 15 13 10 36 -9 38 20 3 32 -14 4 -35 24 -48 43 -29 42 -67 51 -86
19 -12 -19 -11 -24 14 -50 15 -16 22 -29 15 -29 -7 0 -19 -7 -28 -16 -13 -13
-14 -19 -2 -40 11 -21 11 -27 0 -34 -9 -5 -12 -18 -8 -38 3 -16 2 -33 -4 -39
-6 -6 -6 -33 -1 -72 5 -36 5 -64 0 -67 -5 -3 -2 -17 7 -31 12 -18 14 -28 6
-36 -17 -17 -12 -70 9 -97 24 -31 25 -44 4 -36 -18 7 -44 -10 -44 -29 0 -15
45 -65 60 -65 5 0 10 -4 10 -10 0 -5 -4 -10 -9 -10 -6 0 -13 5 -16 10 -9 15
-35 12 -35 -4 0 -7 7 -19 16 -27 14 -12 14 -14 -1 -25 -11 -8 -15 -20 -11 -29
3 -9 3 -21 0 -27 -8 -13 -8 -134 0 -147 4 -6 2 -21 -5 -33 -13 -26 -76 -88
-89 -88 -5 0 -19 15 -31 33 -13 17 -27 34 -31 35 -4 2 -8 13 -8 24 0 11 -9 31
-20 45 -26 33 -25 53 1 53 19 0 21 4 14 37 -8 42 -33 67 -52 51 -6 -5 -9 -16
-6 -25 5 -12 1 -14 -16 -8 -16 5 -26 2 -35 -11 -13 -16 -15 -16 -42 3 l-29 21
-28 -24 c-15 -12 -27 -29 -27 -37 0 -8 -7 -20 -15 -27 -19 -16 -19 -44 0 -60
19 -16 35 -4 35 27 0 13 8 35 18 48 17 21 20 22 45 9 22 -12 30 -12 47 -2 17
11 22 10 30 -2 5 -8 10 -25 10 -37 0 -12 5 -25 11 -28 6 -4 8 -14 4 -23 -3 -9
3 -24 17 -36 13 -12 40 -42 61 -68 40 -50 67 -62 67 -29 0 13 8 21 23 23 14 2
21 9 19 20 -1 9 5 21 15 26 17 9 18 4 17 -77 -1 -48 -6 -97 -13 -108 -18 -34
-13 -59 14 -71 30 -14 31 -22 5 -45 -17 -14 -19 -21 -9 -38 6 -12 8 -38 5 -60
-4 -22 -2 -40 5 -44 6 -5 4 -12 -8 -20 -17 -13 -17 -15 6 -39 l24 -26 -22 0
c-16 0 -21 -4 -18 -15 4 -8 2 -17 -3 -20 -15 -9 -12 -36 6 -57 13 -14 14 -21
5 -32 -7 -8 -10 -20 -7 -25 4 -5 1 -13 -5 -16 -6 -4 -8 -18 -5 -31 6 -22 4
-24 -34 -24 -40 0 -40 0 -40 39 0 23 -9 56 -21 76 -16 27 -20 45 -15 75 3 22
2 41 -4 45 -5 3 -10 17 -10 30 0 33 -20 75 -37 75 -10 0 -13 -31 -13 -145 0
-112 -3 -145 -13 -145 -7 0 -18 5 -24 11 -19 19 -33 0 -33 -42 0 -28 -4 -39
-12 -36 -10 3 -13 38 -11 138 1 74 5 142 9 152 3 9 3 25 -1 35 -5 9 -9 37 -9
62 -1 38 -4 45 -23 48 -21 3 -22 2 -22 -160 -1 -159 12 -290 32 -315 6 -9 6
-13 -1 -13 -18 0 -42 43 -42 76 0 18 -8 38 -20 49 -20 18 -21 18 -35 -1 -13
-17 -14 -5 -15 111 0 134 -7 162 -34 152 -12 -5 -16 -20 -16 -61 0 -30 -4 -58
-10 -61 -5 -3 -10 -15 -10 -26 0 -30 -14 -23 -35 19 -29 56 -55 82 -84 82
l-26 -1 30 -24 c53 -44 65 -58 65 -76 0 -9 7 -22 15 -29 8 -7 15 -19 15 -28 0
-11 -8 -8 -30 13 -16 16 -30 36 -30 45 0 25 -38 56 -51 43 -8 -8 -7 -17 2 -31
7 -12 10 -24 6 -28 -10 -11 -35 25 -47 67 -9 33 -36 68 -44 58 -2 -2 3 -32 11
-66 12 -54 18 -63 48 -77 19 -9 37 -21 40 -27 4 -5 15 -7 25 -4 25 8 60 -39
60 -81 0 -18 -4 -35 -9 -38 -14 -9 -39 26 -43 59 -2 19 -9 31 -22 33 -27 6
-42 -14 -26 -33 14 -17 8 -31 -9 -20 -6 3 -11 19 -11 34 0 15 -9 36 -20 46
-11 10 -20 24 -20 30 0 7 -7 18 -15 25 -8 7 -15 19 -15 27 0 19 -50 126 -63
134 -6 4 -7 25 -3 50 16 101 18 137 7 143 -6 4 -11 29 -11 56 0 27 -5 52 -11
56 -6 3 -9 17 -6 30 2 14 0 27 -4 30 -5 3 -9 33 -9 68 0 67 -18 116 -71 189
-37 51 -37 69 -1 34 15 -15 33 -27 39 -27 17 0 35 28 27 41 -17 28 -12 69 12
88 13 10 24 23 24 29 0 5 -17 29 -38 53 -21 24 -44 64 -52 89 -8 24 -34 67
-59 94 l-43 49 23 18 c13 10 27 19 31 19 8 0 31 50 48 106 12 40 11 43 -24 92
-20 29 -36 56 -36 60 0 5 11 19 25 32 14 13 25 31 25 41 0 10 5 21 10 24 6 3
10 21 10 39 0 27 -9 42 -49 80 -49 45 -51 46 -113 45 -53 -1 -75 5 -140 36
-43 20 -78 41 -78 46 0 5 -4 9 -10 9 -14 0 -110 70 -110 80 0 4 -16 27 -35 50
-19 23 -38 53 -41 66 -3 13 -10 24 -15 24 -5 0 -9 11 -9 25 0 14 -4 25 -10 25
-5 0 -10 7 -10 15 0 19 9 19 32 -2z m2287 -10 c0 -10 -9 -31 -20 -48 -10 -16
-23 -41 -29 -54 l-11 -25 -21 21 -21 21 44 51 c47 54 59 62 58 34z m-719 -183
c0 -5 -4 -10 -10 -10 -5 0 -10 5 -10 10 0 6 5 10 10 10 6 0 10 -4 10 -10z
m-1412 -401 c-10 -6 -18 -20 -18 -31 0 -24 37 -68 57 -68 18 0 17 19 -2 26
-24 9 -17 24 10 24 16 0 25 6 25 15 0 21 10 18 50 -14 30 -25 34 -35 35 -75 0
-33 5 -49 19 -59 19 -14 19 -16 4 -40 -16 -24 -37 -31 -118 -43 -19 -3 -45
-10 -58 -16 -29 -15 -53 7 -56 48 -2 16 -8 42 -15 59 -10 24 -10 36 3 67 9 24
11 40 4 44 -6 4 -6 10 1 17 6 6 11 20 11 31 0 11 8 28 17 38 15 17 18 17 32 3
15 -15 14 -17 -1 -26z m2002 -12 c20 -46 18 -185 -4 -231 -18 -38 -47 -59 -54
-38 -2 7 -22 12 -45 12 -64 0 -107 19 -107 49 l0 24 23 -21 c23 -22 57 -30 57
-13 0 5 -7 14 -15 21 -10 8 -12 17 -6 24 13 17 1 72 -19 91 -20 18 -17 45 5
45 19 0 53 42 38 47 -23 8 -14 23 15 24 15 0 36 4 47 8 26 10 48 -4 65 -42z
m-1816 -9 c5 -9 7 -20 3 -24 -8 -8 -47 24 -47 38 0 15 32 5 44 -14z m150 -77
c20 -21 27 -37 24 -57 -3 -27 -7 -29 -49 -32 l-47 -3 1 60 c0 56 2 61 22 61
12 0 34 -13 49 -29z m-137 -18 c-3 -10 -5 -4 -5 12 0 17 2 24 5 18 2 -7 2 -21
0 -30z m1458 17 c3 -6 -1 -7 -9 -4 -18 7 -21 14 -7 14 6 0 13 -4 16 -10z m29
-62 c4 -17 2 -28 -4 -28 -5 0 -10 14 -10 32 0 36 4 35 14 -4z m-64 2 c0 -11
-4 -20 -10 -20 -5 0 -10 9 -10 20 0 11 5 20 10 20 6 0 10 -9 10 -20z m-219 -6
c7 -9 23 -20 35 -24 12 -5 24 -20 26 -34 6 -32 -8 -45 -17 -16 -3 11 -22 32
-41 46 -33 25 -44 44 -25 44 5 0 15 -7 22 -16z m44 -144 c27 -29 15 -32 -20
-4 -20 16 -25 24 -14 24 9 0 24 -9 34 -20z m-35 -81 c0 -42 -2 -49 -14 -40 -7
6 -11 23 -9 39 11 69 23 70 23 1z m70 -59 c0 -11 -4 -20 -9 -20 -14 0 -23 18
-16 30 10 17 25 11 25 -10z m-1500 -50 c0 -22 7 -43 16 -51 13 -11 19 -8 39
17 l23 29 28 -21 c15 -11 31 -32 35 -47 4 -15 14 -33 22 -42 11 -11 14 -26 10
-53 -7 -48 -19 -62 -52 -62 -15 0 -31 -4 -37 -9 -5 -5 -35 -12 -66 -15 -51 -7
-58 -5 -68 14 -6 11 -8 29 -5 39 4 13 -3 29 -20 47 -26 28 -32 49 -15 59 6 3
10 24 10 45 0 32 4 39 23 42 16 2 22 10 23 28 2 41 3 43 19 30 8 -7 15 -29 15
-50z m2041 20 c19 -40 26 -214 9 -225 -5 -3 -10 -15 -10 -26 0 -25 -44 -43
-70 -29 -10 5 -30 10 -44 10 -14 0 -28 5 -31 10 -3 6 -19 10 -34 10 -16 0 -34
6 -40 14 -9 11 -6 12 14 8 35 -6 31 11 -10 42 -19 15 -35 34 -35 44 0 12 3 13
12 4 22 -22 38 -13 38 21 0 34 22 63 68 86 24 13 21 34 -3 24 -9 -3 -15 1 -15
11 0 12 10 16 39 16 22 0 43 5 46 11 14 21 50 4 66 -31z m-1971 5 c0 -9 -6
-12 -15 -9 -8 4 -15 10 -15 15 0 5 7 9 15 9 8 0 15 -7 15 -15z m94 -14 c24
-26 2 -37 -23 -12 -11 11 -17 22 -13 25 9 10 18 7 36 -13z m1236 -20 c19 -16
31 -33 27 -37 -4 -5 -24 9 -45 29 -44 44 -32 49 18 8z m-1040 9 c0 -5 -5 -10
-11 -10 -5 0 -7 5 -4 10 3 6 8 10 11 10 2 0 4 -4 4 -10z m20 -40 c0 -5 -4 -10
-10 -10 -5 0 -10 5 -10 10 0 6 5 10 10 10 6 0 10 -4 10 -10z m-68 -17 c12 -11
18 -30 18 -60 l0 -43 -39 0 c-42 0 -63 16 -40 30 10 7 10 14 1 36 -7 14 -11
27 -10 28 2 0 12 6 23 13 26 16 26 16 47 -4z m1169 -79 c23 -22 26 -32 22 -60
-3 -20 -1 -40 7 -49 7 -9 10 -18 7 -22 -9 -9 -37 17 -37 35 0 8 -8 21 -17 29
-13 10 -15 16 -5 19 16 8 15 29 -3 44 -16 13 -20 30 -8 30 4 0 19 -12 34 -26z
m-1086 -14 c3 -5 1 -10 -4 -10 -6 0 -11 5 -11 10 0 6 2 10 4 10 3 0 8 -4 11
-10z m1136 -183 c-1 -12 -15 -9 -19 4 -3 6 1 10 8 8 6 -3 11 -8 11 -12z
m-1342 -103 c2 -2 -2 -10 -9 -19 -14 -17 -11 -23 22 -39 26 -13 57 -65 50 -84
-2 -7 5 -20 17 -28 16 -12 20 -21 15 -42 -10 -43 -33 -61 -83 -67 -25 -3 -61
-10 -79 -16 -38 -12 -61 2 -87 54 -17 34 -20 142 -5 152 6 3 10 14 10 24 0 10
7 32 16 49 15 32 16 32 72 26 31 -4 59 -8 61 -10z m1736 -7 c8 -13 16 -42 17
-66 1 -23 5 -44 10 -47 10 -7 11 -94 0 -94 -4 0 -15 9 -25 20 -9 11 -21 20
-27 20 -5 0 -10 -9 -10 -20 0 -28 -22 -25 -54 9 l-27 28 27 20 c24 18 25 22
13 41 -11 18 -11 26 -2 42 8 12 9 21 3 25 -18 11 -10 34 13 38 42 8 47 7 62
-16z m-460 -17 c10 -11 16 -20 13 -20 -3 0 -15 9 -28 20 -13 11 -19 20 -13 20
5 0 18 -9 28 -20z m-1186 -24 c7 -8 11 -23 8 -33 -4 -17 -5 -16 -12 2 -5 11
-17 26 -27 33 -24 18 -24 36 0 23 10 -5 24 -17 31 -25z m1201 -61 c0 -16 -6
-25 -15 -25 -8 0 -15 5 -15 10 0 6 5 10 10 10 6 0 10 7 10 15 0 8 2 15 5 15 3
0 5 -11 5 -25z m-1100 1 c0 -18 -17 -29 -30 -21 -8 5 -7 11 1 21 15 18 29 18
29 0z m68 -9 c5 -24 -15 -21 -28 4 -10 18 -9 20 7 17 10 -2 19 -11 21 -21z
m1132 13 c0 -6 14 -23 32 -39 37 -33 33 -57 -12 -63 -21 -3 -39 1 -53 13 -17
14 -18 18 -6 19 8 0 20 -5 26 -11 7 -7 13 -7 17 -1 3 5 -3 17 -14 27 -20 18
-26 46 -13 58 10 10 23 8 23 -3z m180 -31 c0 -5 -4 -9 -10 -9 -5 0 -10 7 -10
16 0 8 5 12 10 9 6 -3 10 -10 10 -16z m-70 -20 c0 -5 -4 -9 -10 -9 -5 0 -10 7
-10 16 0 8 5 12 10 9 6 -3 10 -10 10 -16z m-1230 -25 c0 -22 -4 -24 -50 -24
-47 0 -50 2 -50 25 0 27 17 34 26 10 9 -21 31 -19 44 5 14 26 30 17 30 -16z
m1003 -84 c-6 -22 -33 -28 -33 -7 0 16 21 38 31 32 4 -3 5 -14 2 -25z m289 1
c16 -8 26 -16 24 -19 -8 -8 -60 23 -64 38 -2 9 0 11 5 5 4 -6 20 -16 35 -24z
m142 -5 c28 -25 32 -36 14 -36 -16 0 -48 31 -48 47 0 18 5 17 34 -11z m-544 4
c0 -5 -4 -10 -10 -10 -5 0 -10 5 -10 10 0 6 5 10 10 10 6 0 10 -4 10 -10z
m100 -118 c0 -10 5 -23 11 -29 7 -7 9 -19 5 -28 -5 -14 -9 -15 -21 -5 -17 14
-21 80 -5 80 6 0 10 -8 10 -18z m-50 -62 c0 -5 -4 -10 -10 -10 -5 0 -10 5 -10
10 0 6 5 10 10 10 6 0 10 -4 10 -10z m-24 -57 c-7 -7 -26 7 -26 19 0 6 6 6 15
-2 9 -7 13 -15 11 -17z m-633 -378 c-3 -51 -3 -196 0 -273 2 -40 -1 -76 -6
-79 -4 -2 -3 -11 4 -19 8 -10 9 -18 0 -27 -6 -8 -8 -17 -4 -20 12 -13 6 -1242
-6 -1265 -6 -11 -11 -32 -11 -46 0 -14 -4 -26 -10 -26 -13 0 -13 66 1 91 7 15
7 24 -1 33 -11 14 -15 1639 -4 1658 3 5 13 8 22 6 12 -3 16 -13 15 -33z m551
2 c12 -19 3 -32 -19 -24 -17 7 -21 51 -3 45 6 -2 16 -12 22 -21z m-337 -69
c13 -17 8 -160 -7 -200 -30 -81 -39 -90 -64 -65 -29 28 -34 76 -20 171 11 73
64 128 91 94z m137 -28 c30 -31 36 -43 27 -53 -6 -8 -8 -17 -5 -20 4 -3 12
-31 19 -60 12 -52 11 -56 -10 -83 -22 -28 -24 -28 -43 -11 -11 10 -23 35 -26
55 -12 72 -18 212 -10 212 5 0 26 -18 48 -40z m194 28 c13 -13 17 -68 4 -68
-17 0 -32 25 -32 52 0 30 9 35 28 16z m-468 -209 c0 -21 5 -41 10 -44 6 -4 10
-53 10 -116 0 -88 -3 -109 -14 -109 -8 0 -18 4 -21 10 -3 5 -6 76 -6 157 -1
81 -5 156 -10 165 -6 10 -7 23 -3 29 10 17 34 -47 34 -92z m390 -424 c0 -305
-4 -485 -10 -485 -23 0 -27 56 -28 390 0 195 -3 368 -7 384 -5 17 -3 36 3 47
6 10 14 47 18 83 17 161 24 31 24 -419z m-190 260 c0 -50 5 -86 12 -93 9 -9 8
-12 -5 -12 -16 0 -17 -9 -13 -92 8 -154 9 -272 2 -290 -4 -9 -3 -33 3 -54 12
-43 8 -52 -14 -34 -13 11 -15 60 -15 354 1 302 2 339 15 322 10 -14 15 -45 15
-101z m270 74 c0 -5 -4 -9 -10 -9 -5 0 -10 7 -10 16 0 8 5 12 10 9 6 -3 10
-10 10 -16z m-10 -69 c0 -5 -4 -10 -10 -10 -5 0 -10 5 -10 10 0 6 5 10 10 10
6 0 10 -4 10 -10z m-359 -25 c1 -8 1 -35 1 -60 0 -76 -1 -80 -14 -67 -12 12
-21 119 -12 134 8 13 24 9 25 -7z m177 3 c14 -14 18 -628 3 -628 -16 0 -30 25
-21 39 10 18 1 83 -14 94 -8 5 -7 10 3 16 8 5 11 16 8 25 -4 9 -1 27 5 41 9
20 8 28 -5 43 -15 16 -15 21 -2 46 18 33 19 58 5 72 -8 8 -7 19 1 37 10 23 9
30 -6 47 -17 19 -18 21 -1 33 15 11 16 20 8 62 -5 28 -13 58 -17 68 -8 20 14
24 33 5z m-268 -123 c7 -8 8 -15 2 -15 -5 0 -15 7 -22 15 -7 8 -8 15 -2 15 5
0 15 -7 22 -15z m-7 -45 c20 -23 22 -41 6 -57 -8 -8 -7 -17 3 -32 10 -17 10
-25 0 -42 -9 -13 -10 -25 -3 -32 11 -14 13 -967 2 -967 -4 0 -15 8 -24 18 -17
18 -15 47 5 88 7 15 7 28 -1 43 -18 32 -21 921 -3 921 18 0 15 40 -5 62 -9 10
-12 18 -7 18 5 0 17 -9 27 -20z m467 1 c13 -25 13 -121 0 -121 -5 0 -10 8 -10
18 0 10 -5 23 -11 29 -8 8 -8 17 1 33 9 16 9 25 1 33 -14 14 -14 27 -1 27 5 0
14 -9 20 -19z m-373 -3 c5 -8 9 -150 8 -336 -1 -178 2 -325 7 -328 10 -6 1
-24 -12 -24 -24 0 -30 78 -27 350 2 157 6 291 10 297 4 6 3 14 -3 18 -12 8
-13 35 -1 35 5 0 13 -6 18 -12z m380 -184 c9 -23 -11 -38 -26 -20 -13 16 -7
36 10 36 5 0 12 -7 16 -16z m-7 -90 c-7 -7 -16 -14 -21 -14 -13 0 -11 34 3 48
18 18 34 -14 18 -34z m10 -115 c0 -15 -4 -30 -9 -34 -21 -12 -43 70 -24 89 12
11 33 -25 33 -55z m-284 -178 c-1 -103 -4 -131 -16 -139 -13 -8 -15 7 -13 116
2 128 5 152 22 152 5 0 8 -56 7 -129z m282 86 c2 -10 1 -25 -2 -34 -9 -23 -36
3 -36 34 0 18 5 24 17 21 10 -2 19 -11 21 -21z m-198 -76 c5 -11 8 -49 6 -85
-2 -35 -1 -67 2 -71 13 -13 9 -75 -5 -75 -15 0 -17 -21 -4 -35 18 -20 21 -62
6 -75 -17 -14 -20 -40 -5 -40 6 0 10 -4 10 -10 0 -16 -14 -11 -27 9 -7 12 -9
30 -4 47 4 15 3 45 -3 66 -7 28 -7 47 3 73 7 19 9 40 5 47 -10 16 -13 168 -3
168 5 0 13 -9 19 -19z m185 -28 c8 -32 13 -134 7 -146 -2 -4 -10 -3 -18 4 -10
8 -14 35 -14 90 0 79 11 103 25 52z m-79 -14 c3 -6 0 -15 -7 -20 -11 -7 -12
-12 -1 -29 15 -24 17 -170 2 -170 -15 0 -20 17 -23 85 -1 33 -6 66 -10 73 -9
13 12 72 25 72 4 0 10 -5 14 -11z m-284 -196 c1 -43 1 -114 0 -157 -1 -47 3
-85 10 -93 17 -21 0 -29 -20 -10 -15 15 -17 39 -17 177 0 121 3 160 13 160 8
0 12 -23 14 -77z m88 8 c16 -30 12 -36 -10 -16 -21 19 -26 35 -10 35 5 0 14
-9 20 -19z m275 -28 c0 -12 3 -25 8 -29 4 -4 7 -13 7 -21 0 -7 -3 -13 -7 -13
-11 0 -33 50 -33 73 0 10 5 17 13 14 6 -2 12 -13 12 -24z m-88 -35 c6 -7 10
-35 10 -63 0 -48 -10 -75 -28 -75 -5 0 -6 13 -3 30 4 18 1 36 -7 46 -10 13
-10 17 0 24 8 4 11 16 6 29 -7 23 7 28 22 9z m-177 -48 c0 -5 -4 -10 -10 -10
-5 0 -10 5 -10 10 0 6 5 10 10 10 6 0 10 -4 10 -10z m-10 -50 c6 -11 8 -25 5
-30 -11 -19 -23 -10 -27 20 -5 34 6 39 22 10z m270 0 c0 -11 11 -27 25 -36 14
-9 25 -23 25 -30 0 -16 -2 -16 -25 -8 -29 12 -60 94 -35 94 6 0 10 -9 10 -20z
m-167 -77 c4 -21 1 -35 -8 -43 -8 -7 -15 -20 -15 -28 0 -12 -3 -13 -11 -5 -7
7 -8 19 -4 30 5 10 7 38 6 63 -2 40 -1 43 12 30 8 -8 17 -29 20 -47z m67 -72
c0 -39 -4 -73 -10 -76 -6 -4 -10 22 -10 69 0 44 4 76 10 76 6 0 10 -30 10 -69z
m-164 34 c8 -20 -4 -65 -16 -65 -6 0 -10 18 -10 40 0 40 15 54 26 25z m328
-27 c-4 -6 -10 -5 -15 3 -14 22 -10 33 6 19 8 -7 12 -17 9 -22z m-504 -148 c0
-22 -4 -40 -10 -40 -5 0 -10 18 -10 40 0 22 5 40 10 40 6 0 10 -18 10 -40z
m340 -15 c0 -30 -4 -55 -10 -55 -5 0 -10 25 -10 55 0 30 5 55 10 55 6 0 10
-25 10 -55z"/>
<path d="M3222 4449 c2 -7 10 -15 17 -17 8 -3 12 1 9 9 -2 7 -10 15 -17 17 -8
3 -12 -1 -9 -9z"/>
<path d="M2906 4418 c-17 -24 -12 -37 33 -86 17 -18 36 -30 42 -27 7 5 2 16
-13 32 l-23 25 23 -6 c12 -3 32 -9 43 -12 12 -3 20 -2 18 3 -5 11 -94 93 -102
93 -3 0 -13 -10 -21 -22z"/>
<path d="M2575 4410 c-4 -6 -6 -37 -4 -68 1 -31 -1 -65 -5 -74 -5 -10 -5 -64
-2 -120 3 -57 6 -114 7 -128 0 -14 5 -32 10 -41 6 -12 4 -19 -6 -23 -8 -3 -15
-14 -15 -24 0 -26 35 -56 56 -48 15 6 15 8 2 24 -13 14 -15 54 -13 254 2 184
0 240 -10 248 -10 8 -15 8 -20 0z"/>
<path d="M1980 4346 c0 -15 37 -32 47 -22 3 3 3 12 0 21 -8 19 -47 20 -47 1z"/>
<path d="M2896 4295 c-6 -16 51 -65 76 -65 8 0 23 -9 33 -20 23 -26 45 -26 45
0 0 12 -12 26 -32 36 -18 9 -47 28 -64 40 -36 28 -50 30 -58 9z"/>
<path d="M2470 4230 c0 -5 7 -10 16 -10 8 0 12 5 9 10 -3 6 -10 10 -16 10 -5
0 -9 -4 -9 -10z"/>
<path d="M2037 4223 c-9 -16 0 -144 12 -156 13 -13 12 -18 17 69 4 54 1 74
-10 83 -8 7 -16 8 -19 4z"/>
<path d="M3010 4170 c0 -5 5 -10 10 -10 6 0 10 5 10 10 0 6 -4 10 -10 10 -5 0
-10 -4 -10 -10z"/>
<path d="M3077 4153 c-14 -13 -7 -60 11 -76 10 -10 22 -14 25 -10 12 12 7 64
-7 79 -16 16 -20 17 -29 7z"/>
<path d="M2274 4129 c-3 -6 6 -23 20 -38 l27 -26 -7 30 c-11 47 -24 59 -40 34z"/>
<path d="M2350 4110 c0 -5 5 -10 11 -10 5 0 7 5 4 10 -3 6 -8 10 -11 10 -2 0
-4 -4 -4 -10z"/>
<path d="M2490 4080 c0 -5 7 -10 15 -10 8 0 15 5 15 10 0 6 -7 10 -15 10 -8 0
-15 -4 -15 -10z"/>
<path d="M2270 4039 c0 -23 22 -49 40 -49 26 0 25 12 -3 38 -26 24 -37 28 -37
11z"/>
<path d="M2427 4043 c-4 -3 -2 -12 5 -20 6 -7 8 -16 5 -20 -8 -8 11 -43 24
-43 8 0 7 56 0 88 -2 5 -28 2 -34 -5z"/>
<path d="M2160 4012 c0 -13 64 -72 78 -72 20 0 13 29 -10 41 -13 7 -27 18 -31
25 -9 15 -37 19 -37 6z"/>
<path d="M2270 3957 c0 -8 11 -24 25 -37 l25 -23 0 24 c0 27 -17 49 -37 49 -7
0 -13 -6 -13 -13z"/>
<path d="M2114 3894 c3 -9 6 -18 6 -20 0 -2 9 -4 20 -4 23 0 26 10 8 28 -18
18 -41 15 -34 -4z"/>
<path d="M2340 3893 c0 -9 36 -43 46 -43 3 0 4 10 2 23 -2 14 -11 23 -25 25
-13 2 -23 0 -23 -5z"/>
<path d="M2545 3880 c-4 -6 -2 -17 4 -24 6 -7 12 -34 15 -61 3 -36 10 -54 26
-67 31 -25 51 -7 25 22 -18 20 -18 21 0 34 12 9 15 15 7 20 -7 4 -12 15 -12
25 0 16 -38 61 -53 61 -3 0 -9 -5 -12 -10z"/>
<path d="M2220 3874 c0 -3 5 -15 11 -26 12 -22 14 -22 -36 -2 -8 3 -15 2 -15
-3 0 -14 59 -67 66 -60 4 4 13 -2 21 -13 18 -25 30 -25 38 0 5 14 -4 33 -31
65 -32 40 -54 56 -54 39z"/>
<path d="M2090 3835 c0 -18 19 -40 26 -32 4 4 0 15 -9 24 -9 10 -17 13 -17 8z"/>
<path d="M2792 3774 c2 -11 11 -20 22 -22 13 -3 17 1 14 14 -2 11 -11 20 -22
22 -13 3 -17 -1 -14 -14z"/>
<path d="M2200 3746 c0 -7 6 -19 14 -25 19 -16 32 5 16 24 -16 19 -30 19 -30
1z"/>
<path d="M2272 3708 c6 -16 36 -34 44 -25 9 9 -15 37 -33 37 -8 0 -13 -5 -11
-12z"/>
<path d="M2220 3671 c0 -24 25 -47 35 -31 4 7 19 9 36 5 32 -7 42 12 12 21
-10 3 -26 10 -35 15 -28 15 -48 11 -48 -10z"/>
<path d="M2574 3668 c-4 -13 -2 -24 4 -26 36 -12 62 -45 62 -80 1 -36 28 -82
49 -82 19 0 23 21 6 40 -13 14 -14 23 -6 38 9 17 6 26 -23 56 -18 20 -38 36
-44 36 -6 0 -14 9 -17 20 -8 26 -22 25 -31 -2z"/>
<path d="M2166 3664 c-8 -20 1 -34 47 -73 48 -43 52 -75 6 -51 -25 14 -38 -13
-18 -37 11 -13 11 -17 2 -20 -23 -8 -14 -42 15 -55 17 -8 27 -21 27 -35 0 -11
9 -30 19 -42 11 -12 16 -24 13 -27 -13 -14 -38 7 -53 46 -9 22 -20 40 -24 40
-20 0 -21 -24 -1 -51 11 -15 21 -37 21 -48 0 -11 4 -22 9 -25 5 -4 12 -25 16
-48 6 -34 19 -53 74 -105 85 -82 108 -84 138 -12 l22 50 -32 44 c-18 24 -38
44 -44 44 -18 1 -16 -29 1 -43 8 -6 16 -29 18 -51 3 -35 0 -40 -20 -43 -28 -4
-62 23 -62 50 0 10 -4 18 -10 18 -5 0 -10 8 -10 17 0 9 -7 25 -17 35 -15 17
-15 19 1 37 9 10 15 24 12 32 -12 38 -15 79 -5 79 5 0 19 -16 31 -35 11 -20
33 -42 49 -51 47 -24 36 3 -27 70 -40 44 -54 65 -50 80 3 11 -2 28 -11 38 -15
17 -15 18 7 18 13 0 36 -12 51 -26 31 -30 49 -25 49 15 0 39 -17 53 -44 35
-21 -13 -27 -10 -94 48 -39 34 -74 70 -78 80 -7 22 -20 23 -28 2z m122 -234
c7 0 12 -4 12 -10 0 -5 -3 -10 -6 -10 -12 0 -74 53 -74 63 0 6 13 -1 28 -16
15 -15 33 -27 40 -27z"/>
<path d="M2470 3661 c0 -5 7 -12 16 -15 22 -9 24 -8 24 9 0 8 -9 15 -20 15
-11 0 -20 -4 -20 -9z"/>
<path d="M2280 3611 c0 -5 8 -17 18 -27 16 -17 17 -17 20 1 2 9 -2 21 -10 26
-17 11 -28 11 -28 0z"/>
<path d="M2470 3606 c0 -9 7 -16 16 -16 17 0 14 22 -4 28 -7 2 -12 -3 -12 -12z"/>
<path d="M2577 3604 c-9 -9 -9 -66 -1 -88 12 -32 34 -17 34 22 0 39 -20 79
-33 66z"/>
<path d="M2558 3446 c-5 -26 7 -56 22 -56 19 0 31 39 18 60 -17 27 -35 25 -40
-4z"/>
<path d="M2660 3446 c0 -14 29 -31 38 -22 2 3 2 12 -1 21 -8 19 -37 20 -37 1z"/>
<path d="M2100 3436 c0 -14 29 -31 38 -21 6 6 -18 35 -29 35 -5 0 -9 -6 -9
-14z"/>
<path d="M2114 3345 c-8 -20 4 -35 27 -35 21 0 25 20 7 38 -16 16 -27 15 -34
-3z"/>
<path d="M2080 3277 c0 -7 4 -17 9 -22 20 -21 52 -88 49 -104 -3 -24 28 -81
72 -129 26 -29 40 -53 40 -71 0 -31 16 -51 42 -51 21 0 24 -25 4 -33 -8 -3
-22 -17 -31 -31 -29 -43 7 -126 54 -126 27 0 27 26 0 40 -15 9 -18 15 -9 25 6
7 8 25 4 40 -5 21 -4 27 7 23 8 -3 16 -20 19 -39 6 -44 40 -55 40 -13 l0 28
28 -27 c18 -18 32 -23 41 -18 11 7 10 14 -8 39 -12 18 -17 33 -12 37 12 7 -14
70 -43 103 -23 26 -48 14 -26 -13 11 -13 8 -15 -21 -15 -28 1 -31 2 -16 11 22
13 22 34 -2 45 -58 27 -151 145 -151 191 0 7 -4 21 -9 31 -5 9 -16 34 -25 55
-11 25 -22 37 -36 37 -11 0 -20 -6 -20 -13z m270 -412 c7 -8 8 -15 2 -15 -5 0
-15 7 -22 15 -7 8 -8 15 -2 15 5 0 15 -7 22 -15z"/>
<path d="M2556 3223 c2 -32 7 -68 9 -80 5 -23 -8 -32 -20 -13 -3 6 -12 10 -20
10 -10 0 -6 -13 12 -46 24 -43 24 -45 5 -33 -25 15 -35 9 -26 -15 4 -11 14
-16 26 -13 23 6 51 -32 42 -57 -7 -19 21 -56 43 -56 18 0 16 20 -4 42 -15 17
-15 18 0 18 21 0 21 9 1 31 -14 16 -14 18 5 29 24 13 28 38 6 46 -8 4 -15 17
-15 29 0 13 -5 27 -11 31 -6 3 -8 16 -5 27 3 12 -2 29 -11 39 -13 15 -14 20
-3 34 12 13 11 17 -1 25 -31 20 -38 10 -33 -48z"/>
<path d="M2650 3151 c0 -5 7 -17 16 -25 17 -17 34 -21 34 -8 0 10 -33 42 -43
42 -4 0 -7 -4 -7 -9z"/>
<path d="M2255 3130 c-9 -14 1 -27 37 -44 38 -19 48 -20 48 -3 0 6 -16 22 -35
35 -40 25 -42 26 -50 12z"/>
<path d="M2240 3081 c0 -27 104 -101 141 -101 24 0 2 24 -61 65 -75 48 -80 50
-80 36z"/>
<path d="M2110 3051 c0 -5 19 -23 42 -40 52 -38 67 -21 19 21 -31 27 -61 37
-61 19z"/>
<path d="M2395 3040 c-10 -16 15 -40 41 -40 32 0 31 24 -1 38 -32 15 -32 15
-40 2z"/>
<path d="M2657 3028 c-4 -14 4 -36 22 -64 29 -42 29 -42 9 -62 -20 -20 -20
-20 18 -56 62 -56 81 -47 43 21 -13 24 -17 39 -10 41 17 6 13 26 -10 50 l-20
23 26 -7 c25 -6 26 -5 23 32 -3 39 -3 39 -49 41 -40 2 -48 -1 -52 -19z"/>
<path d="M2510 2987 c0 -17 20 -37 37 -37 10 0 10 5 1 25 -12 26 -38 34 -38
12z"/>
<path d="M2420 2957 c0 -14 31 -47 43 -47 14 0 7 27 -11 43 -22 21 -32 21 -32
4z"/>
<path d="M2195 2908 c8 -39 29 -63 44 -53 14 8 5 43 -17 68 -23 26 -34 20 -27
-15z"/>
<path d="M2510 2897 c0 -25 17 -47 37 -47 16 0 17 42 1 58 -19 19 -38 14 -38
-11z"/>
<path d="M2142 2888 c6 -17 36 -34 45 -24 4 4 -1 14 -11 22 -24 17 -39 18 -34
2z"/>
<path d="M2804 2885 c-7 -18 3 -35 21 -35 18 0 26 15 19 34 -8 20 -33 21 -40
1z"/>
<path d="M2645 2840 c-9 -15 14 -40 36 -40 24 0 24 19 2 36 -22 16 -30 17 -38
4z"/>
<path d="M2190 2825 c0 -18 24 -30 40 -20 8 5 8 11 -1 21 -15 19 -39 18 -39
-1z"/>
<path d="M2200 2746 c0 -14 29 -31 38 -21 6 6 -18 35 -29 35 -5 0 -9 -6 -9
-14z"/>
<path d="M2340 2670 c11 -20 30 -28 30 -12 0 11 -22 32 -32 32 -5 0 -4 -9 2
-20z"/>
<path d="M2630 2660 c0 -5 5 -10 11 -10 5 0 7 5 4 10 -3 6 -8 10 -11 10 -2 0
-4 -4 -4 -10z"/>
<path d="M1612 3973 c2 -10 11 -19 21 -21 16 -3 17 -1 7 17 -13 25 -33 28 -28
4z"/>
<path d="M1575 3550 c28 -12 45 -12 45 0 0 6 -15 10 -32 9 -28 0 -30 -2 -13
-9z"/>
<path d="M1547 3493 c-12 -11 -7 -33 7 -33 7 0 19 -7 26 -15 15 -19 40 -20 40
-2 0 16 -41 57 -56 57 -6 0 -14 -3 -17 -7z"/>
<path d="M1542 3418 c3 -7 12 -14 21 -16 12 -2 15 1 11 12 -7 19 -38 22 -32 4z"/>
<path d="M3560 3586 c0 -16 28 -42 36 -33 7 6 -18 47 -28 47 -5 0 -8 -6 -8
-14z"/>
<path d="M3516 3541 c-3 -5 0 -20 7 -33 10 -21 16 -23 35 -15 25 11 28 27 10
45 -14 14 -44 16 -52 3z"/>
<path d="M3560 3472 c0 -10 41 -35 47 -28 9 8 -17 36 -33 36 -8 0 -14 -3 -14
-8z"/>
<path d="M3540 3416 c0 -21 20 -30 33 -17 9 9 8 14 -3 21 -21 14 -30 12 -30
-4z"/>
<path d="M3446 3151 c-7 -10 22 -37 30 -28 9 8 -3 37 -15 37 -5 0 -12 -4 -15
-9z"/>
<path d="M2490 2230 c0 -5 5 -10 10 -10 6 0 10 5 10 10 0 6 -4 10 -10 10 -5 0
-10 -4 -10 -10z"/>
</g>
</svg>
